<svg xmlns="http://www.w3.org/2000/svg" width="980" height="370" viewBox="0 0 980 370">
  <rect width="100%" height="100%" fill="#ffffff"/>
  <text x="24" y="34" font-size="22" font-weight="700" fill="#111827">Final UEBA Method Comparison</text>
  <text x="24" y="56" font-size="13" fill="#475569">Precision, recall, and F1 on the same smoke case dataset</text>
  <text x="300" y="56" font-size="12" fill="#2f6f8f">Precision</text>
  <text x="382" y="56" font-size="12" fill="#5f8f3a">Recall</text>
  <text x="446" y="56" font-size="12" fill="#9b6a2f">F1</text>

  <text x="24" y="93" font-size="14" fill="#1f2933">Existing SIEM</text>
  <rect x="300" y="72" width="0" height="12" rx="2" fill="#2f6f8f"/>
  <rect x="300" y="89" width="0" height="12" rx="2" fill="#5f8f3a"/>
  <rect x="300" y="106" width="0" height="12" rx="2" fill="#9b6a2f"/>
  <text x="524" y="83" font-size="12" fill="#334155">P 0.0%</text>
  <text x="590" y="100" font-size="12" fill="#334155">R 0.0%</text>
  <text x="656" y="117" font-size="12" fill="#334155">F1 0.0%</text>

  <text x="24" y="145" font-size="14" fill="#1f2933">Single-Agent UEBA</text>
  <rect x="300" y="124" width="210" height="12" rx="2" fill="#2f6f8f"/>
  <rect x="300" y="141" width="70" height="12" rx="2" fill="#5f8f3a"/>
  <rect x="300" y="158" width="105" height="12" rx="2" fill="#9b6a2f"/>
  <text x="524" y="135" font-size="12" fill="#334155">P 100.0%</text>
  <text x="590" y="152" font-size="12" fill="#334155">R 33.3%</text>
  <text x="656" y="169" font-size="12" fill="#334155">F1 50.0%</text>

  <text x="24" y="197" font-size="14" fill="#1f2933">Multi-Agent UEBA</text>
  <rect x="300" y="176" width="163.33333333333334" height="12" rx="2" fill="#2f6f8f"/>
  <rect x="300" y="193" width="196" height="12" rx="2" fill="#5f8f3a"/>
  <rect x="300" y="210" width="178.1818181818182" height="12" rx="2" fill="#9b6a2f"/>
  <text x="524" y="187" font-size="12" fill="#334155">P 77.8%</text>
  <text x="590" y="204" font-size="12" fill="#334155">R 93.3%</text>
  <text x="656" y="221" font-size="12" fill="#334155">F1 84.8%</text>

  <text x="24" y="249" font-size="14" fill="#1f2933">Multi-Agent + Evidence-Separated UEBA</text>
  <rect x="300" y="228" width="210" height="12" rx="2" fill="#2f6f8f"/>
  <rect x="300" y="245" width="196" height="12" rx="2" fill="#5f8f3a"/>
  <rect x="300" y="262" width="202.75862068965517" height="12" rx="2" fill="#9b6a2f"/>
  <text x="524" y="239" font-size="12" fill="#334155">P 100.0%</text>
  <text x="590" y="256" font-size="12" fill="#334155">R 93.3%</text>
  <text x="656" y="273" font-size="12" fill="#334155">F1 96.6%</text>
</svg>
